<svg xmlns="http://www.w3.org/2000/svg" version="1.1" width="256" height="256" viewBox="0 0 512 512" fill="currentColor">
<desc>Created with SVGMaker Editor 2.2.3</desc>
<defs>
</defs>
<path transform="translate(0,0)" style="fill-rule: evenodd" d="M364.2842 5.2018C360.8217 3.0596 356.8052 3.8031 353.435 5.6798 304.1286 28.4117 254.9762 51.5862 205.716 74.4244 202.8444 75.931 200.1036 74.3376 197.4352 72.785 196.3425 72.1494 195.2622 71.5192 194.1896 71.1137 154.209 51.0374 114.1976 30.9965 74.0785 11.2919 71.2161 9.3799 67.5074 9.4507 65.2606 12.4958 63.1677 21.755 62.2289 31.2797 60.5977 40.6452 41.5769 164.5378 22.5715 288.4481 3.7663 412.3761 2.7198 416.0762 5.6899 418.7318 8.2445 420.1127 55.9195 448.2798 103.4407 476.7832 151.085 505.0211 151.8468 505.3982 152.6178 505.8656 153.4011 506.34 156.1465 508.0042 159.0242 509.7463 162.042 507.9422 213.9953 486.4142 265.9793 465.01 318.0403 443.8715 319.967 443.0075 321.8845 443.852 323.7742 444.6841L323.7742 444.6841C324.556 445.0293 325.3331 445.371 326.1041 445.5888 361.3911 460.3362 396.7396 474.9066 432.0728 489.5301 439.1671 492.2388 446.0152 496.2753 453.5866 496.9127 454.8485 493.7967 456.0796 490.6277 456.4643 487.1932 473.6385 354.3069 490.7972 221.4207 507.8328 88.5168 507.899 87.8104 507.9806 87.0987 508.0606 86.3834 508.4161 83.2693 508.7762 80.1003 507.9252 77.0623 504.8474 74.3005 501.0309 73.0081 497.5222 71.1846 453.1403 49.09 408.8508 26.7829 364.2842 5.2018ZM384.7208 28.9251C377.8573 25.5259 371.1016 21.8081 363.9918 19.0817 360.0984 68.529 354.9123 117.8346 350.942 167.2642 350.648 171.3538 350.1556 175.408 349.5339 179.441Q347.6503 174.6821 345.2727 170.0561 342.8951 165.4283 340.0912 161.0678 339.9512 160.85 339.8096 160.6323C342.0133 147.179 342.4503 133.423 343.9554 119.8529 346.8331 86.4808 350.3264 53.1796 353.0041 19.7899 326.4889 31.2797 300.4507 44.2391 274.1047 56.3132 279.4755 66.971 284.2768 78.0714 290.14 88.3751 301.6202 95.9702 316.8246 96.9085 325.427 109.7616 332.6675 119.0155 332.5198 134.0231 325.5378 143.2876Q321.412 139.3609 317.12 136.3441C319.453 130.2239 321.4844 123.0661 316.9938 117.6045 308.1298 108.0089 295.5108 105.8667 284.9693 99.6526 281.5991 97.5812 279.891 93.4208 277.8904 89.8977 273.0582 80.4792 268.5339 70.8482 263.948 61.2703 245.081 69.3965 226.6142 78.6202 207.8704 87.1005 206.4085 102.9278 204.5618 118.7198 203.2537 134.5826 202.929 138.6758 202.435 142.7583 201.9411 146.8426L201.9395 146.8621C201.0639 154.0977 200.1883 161.3386 200.2544 168.6415 199.7066 169.3833 199.1526 170.1145 198.5863 170.8386 198.2939 171.2281 197.7091 172.0248 197.4167 172.4143 194.482 170.9324 191.535 169.4134 188.4788 168.2839 191.5489 140.9914 193.8357 113.5768 196.9135 86.2861 156.1788 65.6078 115.244 45.4784 74.3555 25.225 65.2144 84.3209 56.1195 143.4169 47.2093 202.5482 71.9148 209.6883 96.3402 218.0269 120.9303 225.6679 120.8026 229.3751 121.0842 233.0965 121.3643 236.786 120.5948 237.1047 119.0713 237.7597 118.3018 238.0961 118.148 238.1687 117.9941 238.2395 117.8386 238.3121 93.7933 229.7664 69.3479 222.6919 45.1933 214.5516 35.3136 279.8085 25.2338 345.03 15.4773 410.3047 62.2136 437.4449 108.3959 465.8421 155.0708 493.1594 159.2704 448.9384 165.0444 404.9227 168.4561 360.6255L180.2487 360.6255C179.8855 362.5836 179.5578 364.5487 179.2931 366.5404 174.861 408.5874 170.7522 450.7052 165.997 492.7168 213.6875 472.9945 261.5011 453.6264 309.1301 433.7094 301.4509 421.1926 291.9559 410.2339 284.6923 397.4339 283.552 392.2997 283.8521 386.8681 284.1522 381.4489L284.1522 381.4277C284.6031 373.3263 285.0509 365.248 280.6912 358.2195 279.7417 358.2443 278.7937 358.2673 277.8442 358.2886L277.8442 357.2352 278.9322 357.2086C283.0719 357.0316 287.1961 357.067 291.3358 356.9608 294.0519 364.3522 293.7626 372.1862 293.4733 380.0131L293.4733 380.022 293.4702 380.0893 293.4687 380.1548C293.3471 383.4548 293.2271 386.7513 293.3363 390.0141 293.3517 393.1477 295.537 395.4493 296.9989 397.857 302.7698 405.6114 307.8789 414.0031 313.9884 421.4387 316.3429 400.0169 317.9587 378.4888 319.9901 357.0316 323.668 357.0847 327.3614 357.0847 331.0548 357.1024 329.2543 381.8349 326.2996 406.4434 324.3759 431.1582 364.372 447.4105 404.0756 464.6542 444.2563 480.3576 454.8901 396.4407 466.2779 312.6477 476.5885 228.6599 454.8131 217.4355 433.4532 204.9896 411.3853 194.562 402.075 197.908 394.1343 205.0604 385.0086 208.973 380.3504 208.973 376.0999 206.1581 371.6217 204.7205 383.0804 198.0036 394.6098 191.3682 406.0654 184.6141 406.4409 184.4176 406.8225 184.2087 407.2103 183.9962 409.9034 182.5179 412.8642 180.8927 415.7297 182.7198 437.3204 193.6962 458.4957 205.7881 480.2711 216.2865 486.0112 172.4691 491.3974 128.5809 497.0451 84.7458 459.5883 66.2097 422.2238 47.3727 384.7208 28.9251Z"/>
<path transform="translate(0,0)" fill="currentColor" d="M287.2135 161.9312C259.3904 159.3453 230.2311 174.0696 218.2842 198.5137 216.2479 201.6319 215.1185 206.4386 210.7915 207.2144 206.2577 206.393 202.4239 203.7919 198.2242 202.1035 185.9114 196.5667 170.9738 198.1182 159.3609 204.5372 149.148 210.1349 142.1644 220.2654 139.4441 231.0804 137.7658 237.4766 138.7792 243.9337 139.7877 250.3634 140.1934 252.9569 140.599 255.5473 140.8281 258.1256 136.008 259.4337 131.1083 260.4376 126.145 261.1221 109.7757 263.3125 96.238 276.6221 93.0405 291.9244 89.0157 308.8238 97.8606 327.7007 114.039 335.656 121.6908 339.7174 130.5834 340.8734 139.2214 340.7365 198.0285 340.557 256.8229 340.6042 315.6268 340.6513 326.8308 340.6589 338.0348 340.6681 349.2388 340.6757 351.7014 340.6392 354.1671 340.63 356.6344 340.6209 364.5121 340.5905 372.4025 340.5601 380.2276 339.6565 401.4807 336.2493 419.2817 319.791 424.8177 300.0319 432.899 273.5799 416.7524 242.5343 389.2792 233.6054 380.533 230.0537 371.1028 230.2408 361.7711 230.4263 359.2736 230.475 356.7824 230.5252 354.3135 230.5024 351.8954 220.4631 351.3387 209.785 345.9618 200.6128 334.9534 179.3174 312.1414 163.7109 287.2135 161.9312Z"/>
</svg>